<svg width="214" height="229" viewBox="0 0 214 229" fill="none" xmlns="http://www.w3.org/2000/svg">
    <rect x="3.68966" y="3.68966" width="206.621" height="207.145" rx="12.4138" fill="url(#paint0a_linear)" stroke="url(#paint1a_linear)" stroke-width="6.62069"/>
    <mask id="mask0aaa" mask-type="alpha" maskUnits="userSpaceOnUse" x="7" y="7" width="200" height="201">
        <rect x="7" y="7" width="200" height="200.524" rx="9.10345" fill="url(#paint2a_linear)"/>
    </mask>
    <g mask="url(#mask0aaa)">
        <path d="M102.249 165.764C102.249 167.592 103.731 169.074 105.559 169.074C107.387 169.074 108.869 167.592 108.869 165.764H102.249ZM59.0725 -7L59.0725 74.0577H65.6932L65.6932 -7L59.0725 -7ZM70.6587 85.6439H97.2833V79.0232H70.6587V85.6439ZM102.249 90.6095L102.249 165.764H108.869L108.869 90.6095L102.249 90.6095ZM97.2833 85.6439C100.026 85.6439 102.249 87.8671 102.249 90.6095L108.869 90.6095C108.869 84.2106 103.682 79.0232 97.2833 79.0232V85.6439ZM59.0725 74.0577C59.0725 80.4566 64.2598 85.6439 70.6587 85.6439V79.0232C67.9163 79.0232 65.6932 76.8001 65.6932 74.0577H59.0725Z" fill="url(#paint3a_linear)"/>
        <path d="M187.322 -7V97.6701C187.322 102.241 183.617 105.946 179.046 105.946L113.956 105.946C109.385 105.946 105.68 109.651 105.68 114.222L105.68 153.171" stroke="url(#paint4a_linear)" stroke-width="6.62069"/>
        <path d="M140.221 -7V97.6701C140.221 102.241 136.516 105.946 131.945 105.946H113.956C109.385 105.946 105.68 109.651 105.68 114.222L105.68 153.171" stroke="url(#paint5a_linear)" stroke-width="6.62069"/>
        <path d="M27.1387 -7L27.1387 121.676C27.1387 126.247 30.8439 129.952 35.4145 129.952H96.9727C101.543 129.952 105.249 133.657 105.249 138.228L105.249 228.615" stroke="url(#paint6a_linear)" stroke-width="6.62069" stroke-linecap="round"/>
        <path d="M68.6703 33.7418C68.6703 37.5931 65.5582 40.704 61.7328 40.704C57.9074 40.704 54.7953 37.5931 54.7953 33.7418C54.7953 29.8906 57.9074 26.7796 61.7328 26.7796C65.5582 26.7796 68.6703 29.8906 68.6703 33.7418Z" fill="#626183" stroke="#9A9ABC" stroke-width="4.96552"/>
        <path d="M58.6 129.652C58.6 133.503 55.4879 136.614 51.6625 136.614C47.8371 136.614 44.7249 133.503 44.7249 129.652C44.7249 125.801 47.8371 122.69 51.6625 122.69C55.4879 122.69 58.6 125.801 58.6 129.652Z" fill="#626183" stroke="#9A9ABC" stroke-width="4.96552"/>
        <path d="M111.969 157.921C111.969 161.772 108.857 164.883 105.032 164.883C101.206 164.883 98.0941 161.772 98.0941 157.921C98.0941 154.069 101.206 150.958 105.032 150.958C108.857 150.958 111.969 154.069 111.969 157.921Z" fill="#626183" stroke="#9A9ABC" stroke-width="4.96552"/>
        <path d="M147.211 58.9811C147.211 62.8323 144.099 65.9433 140.274 65.9433C136.448 65.9433 133.336 62.8323 133.336 58.9811C133.336 55.1298 136.448 52.0189 140.274 52.0189C144.099 52.0189 147.211 55.1298 147.211 58.9811Z" fill="#626183" stroke="#9A9ABC" stroke-width="4.96552"/>
        <path d="M193.532 104.413C193.532 108.264 190.419 111.375 186.594 111.375C182.769 111.375 179.657 108.264 179.657 104.413C179.657 100.561 182.769 97.4505 186.594 97.4505C190.419 97.4505 193.532 100.561 193.532 104.413Z" fill="#626183" stroke="#9A9ABC" stroke-width="4.96552"/>
        <path d="M111.969 84.2213C111.969 88.0726 108.857 91.1835 105.032 91.1835C101.206 91.1835 98.0941 88.0726 98.0941 84.2213C98.0941 80.3701 101.206 77.2591 105.032 77.2591C108.857 77.2591 111.969 80.3701 111.969 84.2213Z" fill="#626183" stroke="#9A9ABC" stroke-width="4.96552"/>
        <rect opacity="0.65" x="7" y="-65" width="200" height="92" fill="url(#paint7a_linear)"/>
        <rect x="7" y="22" width="200" height="5" fill="#27C2B9"/>
    </g>
    <path d="M120.254 211.872C120.254 219.967 113.711 226.518 105.654 226.518C97.5961 226.518 91.0531 219.967 91.0531 211.872C91.0531 203.778 97.5961 197.227 105.654 197.227C113.711 197.227 120.254 203.778 120.254 211.872Z" fill="#626183" stroke="#9A9ABC" stroke-width="4.96552"/>
    <path d="M98.6465 211.29L104.063 216.721L112.396 205.859" stroke="#9A9ABC" stroke-width="3.31034"/>
    <defs>
        <linearGradient id="paint0a_linear" x1="207" y1="207.524" x2="207" y2="7" gradientUnits="userSpaceOnUse">
            <stop stop-color="#51516D"/>
            <stop offset="0.655676" stop-color="#6F6D92"/>
        </linearGradient>
        <linearGradient id="paint1a_linear" x1="107" y1="7" x2="107" y2="207.524" gradientUnits="userSpaceOnUse">
            <stop stop-color="#555470"/>
            <stop offset="1" stop-color="#555470"/>
        </linearGradient>
        <linearGradient id="paint2a_linear" x1="107" y1="7" x2="107" y2="207.524" gradientUnits="userSpaceOnUse">
            <stop stop-color="#545470"/>
            <stop offset="1" stop-color="#545470"/>
        </linearGradient>
        <linearGradient id="paint3a_linear" x1="83.971" y1="-7" x2="84.117" y2="161.774" gradientUnits="userSpaceOnUse">
            <stop stop-color="#7F7FAA"/>
            <stop offset="0.505208" stop-color="#A3A3C2"/>
            <stop offset="1" stop-color="#7F7FAA"/>
        </linearGradient>
        <linearGradient id="paint4a_linear" x1="146.501" y1="-7" x2="146.567" y2="149.472" gradientUnits="userSpaceOnUse">
            <stop stop-color="#7F7FAA"/>
            <stop offset="0.505208" stop-color="#A3A3C2"/>
            <stop offset="1" stop-color="#7F7FAA"/>
        </linearGradient>
        <linearGradient id="paint5a_linear" x1="122.95" y1="-7" x2="123.107" y2="149.472" gradientUnits="userSpaceOnUse">
            <stop stop-color="#7F7FAA"/>
            <stop offset="0.505208" stop-color="#A3A3C2"/>
            <stop offset="1" stop-color="#7F7FAA"/>
        </linearGradient>
        <linearGradient id="paint6a_linear" x1="66.1936" y1="-7" x2="66.3051" y2="191.342" gradientUnits="userSpaceOnUse">
            <stop stop-color="#7F7FAA"/>
            <stop offset="0.505208" stop-color="#A3A3C2"/>
            <stop offset="1" stop-color="#7F7FAA"/>
        </linearGradient>
        <linearGradient id="paint7a_linear" x1="107" y1="-65" x2="107" y2="27" gradientUnits="userSpaceOnUse">
            <stop offset="0.510417" stop-color="#27C2B9" stop-opacity="0"/>
            <stop offset="1" stop-color="#27C2B9"/>
        </linearGradient>
    </defs>
</svg>
