<svg width="666" height="481" viewBox="0 0 666 481" fill="none" xmlns="http://www.w3.org/2000/svg">
    <rect y="32.0186" width="666" height="448.269" fill="#E3EDFD"/>
    <path d="M0 12C0 5.37257 5.37258 0 12 0H654C660.627 0 666 5.37258 666 12V186.352H0V12Z" fill="url(#paint000_linear)"/>
    <mask id="mask023" mask-type="alpha" maskUnits="userSpaceOnUse" x="0" y="0" width="666" height="187">
        <path d="M0 12C0 5.37257 5.37258 0 12 0H654C660.627 0 666 5.37258 666 12V186.352H0V12Z" fill="white"/>
    </mask>
    <g mask="url(#mask023)">
        <path d="M35.2205 234.7C64.8319 234.7 88.6926 210.537 88.6926 180.908C88.6926 151.279 64.8319 127.116 35.2205 127.116C5.60904 127.116 -18.2517 151.279 -18.2517 180.908C-18.2517 210.537 5.60904 234.7 35.2205 234.7Z" stroke="#5185FF" stroke-width="22.4135"/>
        <path d="M152.684 -6.68909L142.154 -10.522L138.321 0.00886907L111.142 74.6829L107.309 85.2138L117.839 89.0468L192.514 116.226L203.044 120.059L206.877 109.528L234.057 34.8539L237.889 24.323L227.359 20.4901L152.684 -6.68909Z" stroke="#5185FF" stroke-width="22.4135"/>
        <path d="M600.067 272.989L613.836 131.69L736.242 203.604L600.067 272.989Z" stroke="#3E77FC" stroke-width="22.4135"/>
        <path d="M474.844 212.926C492.527 212.926 506.863 198.591 506.863 180.907C506.863 163.223 492.527 148.888 474.844 148.888C457.16 148.888 442.825 163.223 442.825 180.907C442.825 198.591 457.16 212.926 474.844 212.926Z" stroke="#3E77FC" stroke-width="22.4135"/>
        <path d="M573.143 66.2788C595.248 66.2788 613.168 48.3595 613.168 26.2548C613.168 4.15014 595.248 -13.7692 573.143 -13.7692C551.039 -13.7692 533.119 4.15014 533.119 26.2548C533.119 48.3595 551.039 66.2788 573.143 66.2788Z" stroke="#3E77FC" stroke-width="22.4135"/>
    </g>
    <g filter="url(#filter0_dddd111)">
        <rect x="183.15" y="65.3193" width="299.7" height="381.285" rx="11" fill="white"/>
    </g>
    <rect x="224.775" y="243.474" width="216.45" height="36.63" rx="1.665" fill="#E3EDFD"/>
    <rect x="224.775" y="353.363" width="216.45" height="36.63" rx="18.315" fill="#E3EDFD"/>
    <rect x="224.775" y="196.021" width="216.45" height="36.63" rx="1.665" fill="#E3EDFD"/>
    <path fill-rule="evenodd" clip-rule="evenodd" d="M332.999 176.041C351.39 176.041 366.299 161.132 366.299 142.741C366.299 124.35 351.39 109.441 332.999 109.441C314.608 109.441 299.699 124.35 299.699 142.741C299.699 161.132 314.608 176.041 332.999 176.041Z" fill="url(#paint111_linear)"/>
    <mask id="mask11111" mask-type="alpha" maskUnits="userSpaceOnUse" x="299" y="109" width="68" height="68">
        <path fill-rule="evenodd" clip-rule="evenodd" d="M332.999 176.041C351.39 176.041 366.299 161.132 366.299 142.741C366.299 124.35 351.39 109.441 332.999 109.441C314.608 109.441 299.699 124.35 299.699 142.741C299.699 161.132 314.608 176.041 332.999 176.041Z" fill="white"/>
    </mask>
    <g mask="url(#mask11111)">
        <path opacity="0.8" fill-rule="evenodd" clip-rule="evenodd" d="M347.246 139.938C347.246 147.585 341.038 153.784 333.381 153.784C325.723 153.784 319.516 147.585 319.516 139.938C319.516 132.291 325.723 126.092 333.381 126.092C341.038 126.092 347.246 132.291 347.246 139.938ZM332.611 157.127C345.693 157.127 356.608 167.142 358.03 180.204H307.191C308.613 167.142 319.528 157.127 332.611 157.127Z" fill="#D1E0F3"/>
    </g>
    <path d="M367.128 110.6C362.253 105.726 354.339 105.726 349.464 110.6C344.59 115.475 344.59 123.389 349.464 128.263C354.339 133.138 362.253 133.138 367.128 128.263C372.002 123.389 372.002 115.445 367.128 110.6Z" fill="#D6E4F5"/>
    <path fill-rule="evenodd" clip-rule="evenodd" d="M363.969 120.139C363.788 120.32 363.517 120.44 363.247 120.44H359.335V124.352C359.335 124.622 359.215 124.893 359.034 125.073C358.853 125.254 358.583 125.374 358.313 125.374C357.741 125.374 357.29 124.923 357.29 124.352V120.44H353.378C352.807 120.44 352.355 119.988 352.355 119.417C352.355 118.846 352.807 118.394 353.378 118.394H357.29V114.483C357.29 113.911 357.741 113.46 358.313 113.46C358.884 113.46 359.335 113.911 359.335 114.483V118.394H363.247C363.818 118.394 364.27 118.846 364.27 119.417C364.239 119.687 364.149 119.959 363.969 120.139Z" fill="white"/>
    <rect x="225.787" y="300.711" width="214.514" height="31.9174" rx="1.1134" fill="url(#paint222_linear)" stroke="#CCCCCC" stroke-width="0.742264"/>
    <path d="M252.508 316.669C252.508 322.613 247.689 327.432 241.745 327.432C235.801 327.432 230.982 322.613 230.982 316.669C230.982 310.725 235.801 305.906 241.745 305.906C247.689 305.906 252.508 310.725 252.508 316.669Z" fill="#2488FF" fill-opacity="0.25" stroke="#2488FF" stroke-width="0.742264"/>
    <mask id="path-20-inside-1" fill="white">
        <path fill-rule="evenodd" clip-rule="evenodd" d="M241.746 305.536V316.67L250.1 309.309C248.059 306.996 245.073 305.536 241.746 305.536Z"/>
    </mask>
    <path fill-rule="evenodd" clip-rule="evenodd" d="M241.746 305.536V316.67L250.1 309.309C248.059 306.996 245.073 305.536 241.746 305.536Z" fill="#2488FF" fill-opacity="0.5"/>
    <path d="M241.746 316.67H241.004V318.314L242.237 317.227L241.746 316.67ZM241.746 305.536L241.746 304.794L241.004 304.794V305.536H241.746ZM250.1 309.309L250.59 309.866L251.147 309.375L250.656 308.818L250.1 309.309ZM242.488 316.67V305.536H241.004V316.67H242.488ZM249.609 308.752L241.255 316.113L242.237 317.227L250.59 309.866L249.609 308.752ZM250.656 308.818C248.481 306.352 245.295 304.794 241.746 304.794L241.746 306.278C244.851 306.278 247.638 307.64 249.543 309.8L250.656 308.818Z" fill="#2488FF" mask="url(#path-20-inside-1)"/>
    <path fill-rule="evenodd" clip-rule="evenodd" d="M241.747 321.124C244.206 321.124 246.2 319.13 246.2 316.67C246.2 314.211 244.206 312.217 241.747 312.217C239.287 312.217 237.293 314.211 237.293 316.67C237.293 319.13 239.287 321.124 241.747 321.124Z" fill="#2488FF"/>
    <path d="M262.731 311.971V315.005H259.904V318.341H266.784V315.005H263.469V313.686H267.501V312.979H263.469V311.971H262.731ZM266.035 317.645H260.652V315.712H266.035V317.645ZM259.883 318.798C259.509 319.651 259.063 320.388 258.543 321.001L259.156 321.448C259.676 320.783 260.123 320.004 260.517 319.1L259.883 318.798ZM262.149 319.1L261.453 319.245C261.65 319.9 261.816 320.648 261.962 321.5L262.71 321.334C262.544 320.534 262.357 319.786 262.149 319.1ZM264.321 318.996L263.614 319.141C263.926 319.817 264.186 320.596 264.393 321.48L265.131 321.313C264.903 320.482 264.633 319.703 264.321 318.996ZM266.451 318.788L265.848 319.173C266.482 320.025 266.981 320.794 267.345 321.5L267.968 321.064C267.615 320.42 267.116 319.661 266.451 318.788Z" fill="#383838"/>
    <path d="M269.88 313.488V314.205H273.278V315.93H269.08V316.658H273.278V320.326H270.836V317.562H270.119V321.5H270.836V321.022H276.5V321.5H277.217V317.562H276.5V320.326H274.047V316.658H278.256V315.93H274.047V314.205H277.404V313.488H274.047V312.023H273.278V313.488H269.88Z" fill="#383838"/>
    <path d="M288.471 313.135H286.039C285.894 312.657 285.748 312.241 285.593 311.867L284.834 311.992C285 312.345 285.156 312.719 285.291 313.135H282.901V315.224H283.608V313.81H287.754V315.182H288.471V313.135ZM284.834 314.465C284.688 315.047 284.533 315.598 284.356 316.138H282.652V316.855H284.107C283.878 317.437 283.629 317.988 283.348 318.507C284.034 318.871 284.678 319.225 285.281 319.567C284.574 320.087 283.545 320.503 282.174 320.814L282.475 321.521C284.096 321.137 285.26 320.627 285.987 319.983C286.923 320.534 287.702 321.033 288.326 321.49L288.835 320.898C288.232 320.482 287.453 319.993 286.476 319.453C287.027 318.767 287.39 317.894 287.557 316.855H288.804V316.138H285.115C285.26 315.66 285.416 315.12 285.561 314.527L284.834 314.465ZM286.84 316.855C286.663 317.77 286.32 318.507 285.811 319.089C285.322 318.83 284.792 318.559 284.231 318.268C284.449 317.874 284.657 317.396 284.865 316.855H286.84ZM280.511 321.386C281.103 321.386 281.405 321.085 281.405 320.482V317.479C281.727 317.333 282.049 317.188 282.371 317.032V316.273C282.049 316.44 281.727 316.595 281.405 316.741V314.663H282.382V313.946H281.405V311.981H280.636V313.946H279.42V314.663H280.636V317.042C280.178 317.209 279.7 317.354 279.212 317.468L279.399 318.217C279.804 318.092 280.22 317.946 280.636 317.79V320.295C280.636 320.565 280.501 320.7 280.251 320.7C280.002 320.7 279.742 320.679 279.472 320.659L279.628 321.386H280.511Z" fill="#383838"/>
    <path d="M297.896 313.114L297.74 316.201H295.828L296.099 313.114H297.896ZM295.101 316.201H293.781V316.928H295.039L294.727 320.44H293.469V321.168H299.226V320.44H298.291L298.665 312.408H294.051V313.114H295.371L295.101 316.201ZM295.444 320.44L295.766 316.928H297.709L297.543 320.44H295.444ZM291.059 311.971C290.768 313.218 290.3 314.351 289.656 315.369L290.269 315.754C290.633 315.182 290.955 314.538 291.235 313.831H293.397V313.135H291.485C291.589 312.802 291.692 312.47 291.786 312.117L291.059 311.971ZM290.747 315.224V315.899H291.402V317.177H289.978V317.863H291.402V320.222C291.402 320.368 291.298 320.482 291.09 320.565L291.412 321.209C292.222 320.97 292.95 320.669 293.573 320.295L293.438 319.63C293.002 319.91 292.565 320.139 292.139 320.316V317.863H293.573V317.177H292.139V315.899H293.22V315.224H290.747Z" fill="#383838"/>
    <path d="M300.972 312.117L300.463 312.605C301.201 313.197 301.783 313.748 302.198 314.257L302.739 313.727C302.261 313.187 301.669 312.657 300.972 312.117ZM307.01 321.292H309.39L309.566 320.544C309.296 320.565 308.901 320.575 308.402 320.586C307.893 320.596 307.394 320.607 306.906 320.607C306.106 320.607 305.43 320.596 304.89 320.586C304.287 320.565 303.82 320.482 303.508 320.336C303.217 320.201 302.957 319.983 302.708 319.682C302.625 319.588 302.541 319.505 302.458 319.443V315.556H300.276V316.242H301.762V319.401C301.336 319.588 300.848 320.118 300.297 320.991L300.858 321.5C301.429 320.544 301.835 320.066 302.084 320.066C302.209 320.066 302.344 320.149 302.479 320.326C302.801 320.7 303.165 320.96 303.57 321.085C303.986 321.199 304.516 321.261 305.181 321.272C305.836 321.282 306.449 321.292 307.01 321.292ZM303.456 313.592V314.288H304.682V315.109C304.682 315.546 304.651 315.962 304.599 316.356H303.092V317.063H304.464C304.235 318.04 303.788 318.767 303.134 319.235L303.581 319.838C304.381 319.235 304.921 318.31 305.191 317.063H307.041V320.045H307.768V317.063H309.421V316.356H307.768V314.288H309.088V313.592H307.768V311.95H307.041V313.592H305.399V311.94H304.682V313.592H303.456ZM305.399 314.288H307.041V316.356H305.316C305.368 315.92 305.399 315.442 305.399 314.943V314.288Z" fill="#383838"/>
    <path d="M314.45 312.615V313.353H319.428V312.615H314.45ZM314.17 315.255V315.993H317.443V320.347C317.443 320.617 317.266 320.752 316.934 320.752C316.477 320.752 316.009 320.731 315.51 320.7L315.666 321.438H317.194C317.859 321.438 318.202 321.137 318.202 320.534V315.993H319.885V315.255H314.17ZM312.808 312.044C312.32 313.021 311.541 313.894 310.46 314.663L310.678 315.411C311.967 314.527 312.902 313.509 313.484 312.356L312.808 312.044ZM313.297 314.413C312.715 315.567 311.79 316.585 310.522 317.479L310.74 318.227C311.239 317.884 311.686 317.52 312.102 317.146V321.48H312.84V316.388C313.297 315.868 313.671 315.307 313.972 314.725L313.297 314.413Z" fill="#383838"/>
    <path d="M325.964 315.005V315.65H328.884V315.005C329.238 315.39 329.633 315.754 330.079 316.097L330.485 315.473C329.196 314.476 328.282 313.322 327.762 311.992H327.076C326.453 313.436 325.549 314.611 324.385 315.515L324.78 316.117C325.195 315.795 325.59 315.421 325.964 315.005ZM328.853 314.964H325.995C326.536 314.34 327.003 313.592 327.419 312.719C327.772 313.53 328.25 314.278 328.853 314.964ZM324.686 320.399V321.116H330.36V320.399H328.791C329.206 319.256 329.549 317.946 329.84 316.471L329.123 316.294C328.812 317.926 328.458 319.297 328.063 320.399H324.686ZM325.642 316.595L324.998 316.814C325.362 317.749 325.663 318.715 325.892 319.734L326.536 319.578C326.266 318.456 325.975 317.458 325.642 316.595ZM327.242 316.294L326.598 316.491C326.91 317.385 327.159 318.32 327.346 319.287L328.001 319.131C327.772 318.061 327.523 317.115 327.242 316.294ZM323.522 313.114L323.065 316.71H321.839L322.254 313.852L321.569 313.81L321.08 317.375H323.73C323.73 318.954 323.668 319.9 323.564 320.233C323.46 320.544 323.159 320.711 322.66 320.711C322.514 320.711 322.254 320.69 321.891 320.648L322.088 321.313C322.338 321.334 322.587 321.344 322.826 321.344C323.481 321.344 323.907 321.157 324.115 320.804C324.312 320.44 324.416 319.079 324.416 316.71H323.772L324.27 312.428H321.007V313.114H323.522ZM323.138 318.3C322.452 318.549 321.641 318.746 320.727 318.902L320.82 319.609C321.683 319.443 322.452 319.235 323.138 318.975V318.3Z" fill="#383838"/>
    <path d="M337.717 313.177V320.388H336.262V314.891H335.535V320.388H334.475V321.126H340.835V320.388H338.476V316.793H340.481V316.097H338.476V313.177H340.627V312.439H334.797V313.177H337.717ZM332.542 312.054L332.023 312.543C332.75 313.114 333.322 313.655 333.748 314.174L334.257 313.655C333.789 313.125 333.218 312.595 332.542 312.054ZM331.274 315.13V315.847H332.781V319.89C332.781 320.056 332.708 320.201 332.563 320.326L332.854 321.001C333.529 320.534 334.163 320.004 334.766 319.422L334.569 318.622C334.184 318.996 333.831 319.328 333.498 319.619V315.13H331.274Z" fill="#383838"/>
    <path fill-rule="evenodd" clip-rule="evenodd" d="M433.216 315.955H428.545C428.187 314.589 426.869 313.701 425.467 313.882C424.066 314.063 423.017 315.256 423.017 316.669C423.017 318.082 424.066 319.275 425.467 319.456C426.869 319.637 428.187 318.749 428.545 317.383H431.777C431.465 319.993 429.489 322.096 426.903 322.57C424.317 323.044 421.724 321.778 420.507 319.448C419.289 317.117 419.732 314.266 421.598 312.414C423.464 310.562 426.319 310.142 428.64 311.377C428.265 312.424 428.704 313.588 429.677 314.127C430.65 314.666 431.871 314.421 432.56 313.548C433.248 312.674 433.203 311.43 432.453 310.609C431.702 309.789 430.467 309.632 429.536 310.24C426.626 308.562 422.952 309.047 420.577 311.423C418.202 313.798 417.719 317.473 419.399 320.382C421.08 323.291 424.504 324.709 427.749 323.839C430.993 322.97 433.249 320.029 433.25 316.67C433.25 316.43 433.238 316.191 433.216 315.955ZM425.821 318.053C425.057 318.053 424.438 317.434 424.438 316.671C424.438 315.907 425.057 315.288 425.821 315.288C426.584 315.288 427.203 315.907 427.203 316.671C427.202 317.427 426.595 318.042 425.838 318.053H425.821ZM431.607 312.13C431.607 311.667 431.232 311.292 430.769 311.292C430.547 311.292 430.334 311.38 430.177 311.537C430.019 311.694 429.931 311.907 429.931 312.13C429.931 312.593 430.306 312.968 430.769 312.968C431.232 312.968 431.607 312.593 431.607 312.13Z" fill="#AFBBBF"/>
    <rect x="225.37" y="300.37" width="215.26" height="32.2603" rx="1.10948" fill="#EEFFF5" stroke="#27C267" stroke-width="0.739655"/>
    <path fill-rule="evenodd" clip-rule="evenodd" d="M432.812 315.955H428.141C427.782 314.589 426.465 313.701 425.063 313.882C423.662 314.063 422.613 315.256 422.613 316.669C422.613 318.082 423.662 319.275 425.063 319.456C426.465 319.637 427.782 318.749 428.141 317.383H431.373C431.061 319.993 429.085 322.096 426.499 322.57C423.913 323.044 421.32 321.778 420.102 319.448C418.885 317.117 419.327 314.266 421.194 312.414C423.06 310.562 425.914 310.142 428.235 311.377C427.861 312.424 428.3 313.588 429.273 314.127C430.246 314.666 431.466 314.421 432.155 313.548C432.844 312.674 432.799 311.43 432.048 310.609C431.298 309.789 430.063 309.632 429.132 310.24C426.222 308.562 422.548 309.047 420.173 311.423C417.798 313.798 417.315 317.473 418.995 320.382C420.675 323.291 424.1 324.709 427.344 323.839C430.589 322.97 432.845 320.029 432.845 316.67C432.845 316.43 432.834 316.191 432.812 315.955ZM425.416 318.053C424.653 318.053 424.033 317.434 424.033 316.671C424.033 315.907 424.653 315.288 425.416 315.288C426.18 315.288 426.799 315.907 426.799 316.671C426.798 317.427 426.19 318.042 425.434 318.053H425.416ZM431.203 312.13C431.203 311.667 430.828 311.292 430.365 311.292C430.143 311.292 429.929 311.38 429.772 311.537C429.615 311.694 429.527 311.907 429.527 312.13C429.527 312.593 429.902 312.968 430.365 312.968C430.828 312.968 431.203 312.593 431.203 312.13Z" fill="#27C267"/>
    <path d="M249.409 316.273C249.409 320.767 245.766 324.41 241.272 324.41C236.779 324.41 233.136 320.767 233.136 316.273C233.136 311.78 236.779 308.137 241.272 308.137C245.766 308.137 249.409 311.78 249.409 316.273Z" stroke="#80D6AB" stroke-width="1.47931"/>
    <path d="M263.065 315.075V315.718H265.975V315.075C266.327 315.459 266.72 315.821 267.165 316.163L267.569 315.541C266.285 314.547 265.374 313.398 264.856 312.072H264.173C263.551 313.512 262.651 314.682 261.491 315.583L261.884 316.183C262.298 315.862 262.692 315.49 263.065 315.075ZM265.943 315.034H263.096C263.634 314.413 264.1 313.667 264.514 312.797C264.867 313.605 265.343 314.351 265.943 315.034ZM261.791 320.45V321.164H267.445V320.45H265.881C266.296 319.311 266.637 318.006 266.927 316.536L266.213 316.36C265.902 317.985 265.55 319.352 265.156 320.45H261.791ZM262.744 316.66L262.102 316.877C262.464 317.809 262.764 318.772 262.992 319.787L263.634 319.632C263.365 318.513 263.075 317.519 262.744 316.66ZM264.338 316.36L263.696 316.556C264.007 317.447 264.256 318.379 264.442 319.342L265.094 319.186C264.867 318.12 264.618 317.178 264.338 316.36ZM260.631 313.191L260.176 316.774H258.954L259.368 313.926L258.684 313.885L258.198 317.436H260.838C260.838 319.01 260.776 319.953 260.673 320.284C260.569 320.595 260.269 320.76 259.772 320.76C259.627 320.76 259.368 320.74 259.005 320.698L259.202 321.361C259.451 321.382 259.699 321.392 259.937 321.392C260.59 321.392 261.014 321.206 261.221 320.854C261.418 320.491 261.522 319.135 261.522 316.774H260.88L261.377 312.507H258.125V313.191H260.631ZM260.248 318.358C259.565 318.607 258.757 318.803 257.846 318.959L257.939 319.663C258.798 319.497 259.565 319.29 260.248 319.031V318.358Z" fill="#18A452"/>
    <path d="M274.776 313.253V320.439H273.327V314.962H272.602V320.439H271.546V321.175H277.883V320.439H275.532V316.857H277.531V316.163H275.532V313.253H277.676V312.518H271.867V313.253H274.776ZM269.62 312.135L269.102 312.621C269.827 313.191 270.396 313.729 270.821 314.247L271.328 313.729C270.862 313.201 270.293 312.673 269.62 312.135ZM268.356 315.2V315.914H269.858V319.942C269.858 320.108 269.785 320.253 269.64 320.377L269.93 321.05C270.603 320.584 271.235 320.056 271.836 319.476L271.639 318.679C271.256 319.052 270.904 319.383 270.572 319.673V315.2H268.356Z" fill="#18A452"/>
    <path d="M285.96 312L285.484 312.456C286.012 312.859 286.426 313.243 286.737 313.615H284.8C284.78 313.118 284.769 312.59 284.769 312.01H284.003C284.003 312.57 284.013 313.098 284.034 313.615H279.757V317.064C279.726 318.752 279.384 320.067 278.722 321.019L279.291 321.527C280.058 320.408 280.472 318.917 280.513 317.064V316.753H282.305C282.284 317.892 282.253 318.638 282.191 318.99C282.129 319.28 281.984 319.435 281.756 319.445C281.476 319.445 281.134 319.435 280.731 319.414L280.958 320.087C281.29 320.108 281.59 320.129 281.839 320.129C282.356 320.108 282.677 319.88 282.812 319.435C282.947 318.928 283.029 317.799 283.05 316.049H280.513V314.33H284.065C284.148 315.624 284.293 316.712 284.521 317.581C284.635 318.027 284.769 318.441 284.914 318.824C284.2 319.725 283.319 320.408 282.284 320.874L282.698 321.496C283.672 321.061 284.521 320.429 285.245 319.58C285.401 319.901 285.577 320.191 285.763 320.439C286.26 321.061 286.726 321.371 287.161 321.371C287.627 321.371 287.979 320.678 288.228 319.3L287.555 318.928C287.399 319.994 287.223 320.533 287.037 320.543C286.83 320.543 286.55 320.294 286.209 319.797C286.043 319.559 285.888 319.269 285.743 318.938C286.405 318.006 286.944 316.846 287.358 315.479L286.685 315.189C286.364 316.297 285.95 317.271 285.432 318.099C285.359 317.871 285.287 317.633 285.225 317.374C285.038 316.629 284.904 315.614 284.831 314.33H288.021V313.615H286.757L287.234 313.139C286.882 312.756 286.457 312.373 285.96 312Z" fill="#18A452"/>
    <path d="M290.641 313.905V318.865C290.112 318.99 289.574 319.104 289.035 319.197L289.222 319.942C290.568 319.652 291.831 319.3 293.012 318.865V318.12C292.484 318.327 291.945 318.503 291.396 318.658V313.905H292.888V313.191H289.149V313.905H290.641ZM294.793 312.062V314.154H293.146V314.879H294.793C294.752 317.695 293.985 319.756 292.473 321.04L293.084 321.568C294.679 320.15 295.507 317.923 295.559 314.879H297.454C297.434 317.644 297.392 319.3 297.33 319.839C297.226 320.429 296.833 320.729 296.16 320.729C295.87 320.729 295.539 320.719 295.155 320.698L295.331 321.392C295.777 321.413 296.087 321.434 296.274 321.434C297.32 321.434 297.91 320.999 298.034 320.15C298.138 319.383 298.189 317.385 298.189 314.154H295.559V312.062H294.793Z" fill="#18A452"/>
    <path fill-rule="evenodd" clip-rule="evenodd" d="M246.931 307.152L244.395 310.704C244.395 310.704 245.593 316.221 246.931 315.903C248.269 315.585 253.352 313.679 253.352 313.679L246.931 307.152Z" fill="#EEFFF5"/>
    <path d="M237.066 315.972L240.391 319.224L247.929 311.927" stroke="#27C267" stroke-width="2.21897" stroke-linecap="round"/>
    <path d="M0 12C0 5.37258 5.37258 0 12 0H654C660.627 0 666 5.37258 666 12V32.0192H0V12Z" fill="url(#paint333_linear)"/>
    <path fill-rule="evenodd" clip-rule="evenodd" d="M17.291 21.1319C20.1204 21.1319 22.4141 18.8382 22.4141 16.0088C22.4141 13.1794 20.1204 10.8857 17.291 10.8857C14.4616 10.8857 12.168 13.1794 12.168 16.0088C12.168 18.8382 14.4616 21.1319 17.291 21.1319Z" fill="#707495"/>
    <path fill-rule="evenodd" clip-rule="evenodd" d="M32.6602 21.1319C35.4896 21.1319 37.7833 18.8382 37.7833 16.0088C37.7833 13.1794 35.4896 10.8857 32.6602 10.8857C29.8308 10.8857 27.5371 13.1794 27.5371 16.0088C27.5371 18.8382 29.8308 21.1319 32.6602 21.1319Z" fill="#707495"/>
    <path fill-rule="evenodd" clip-rule="evenodd" d="M48.0293 21.1319C50.8587 21.1319 53.1524 18.8382 53.1524 16.0088C53.1524 13.1794 50.8587 10.8857 48.0293 10.8857C45.1999 10.8857 42.9062 13.1794 42.9062 16.0088C42.9062 18.8382 45.1999 21.1319 48.0293 21.1319Z" fill="#707495"/>
    <defs>
        <linearGradient id="paint000_linear" x1="1329.57" y1="109.219" x2="1216.79" y2="-342.556" gradientUnits="userSpaceOnUse">
            <stop stop-color="#4779FF"/>
            <stop offset="1" stop-color="#629CFF"/>
        </linearGradient>
        <linearGradient id="paint111_linear" x1="293.095" y1="142.062" x2="332.346" y2="185.931" gradientUnits="userSpaceOnUse">
            <stop stop-color="#F3F8FF"/>
            <stop offset="1" stop-color="#E9F0FB"/>
        </linearGradient>
        <linearGradient id="paint222_linear" x1="225.535" y1="300.34" x2="225.535" y2="332.963" gradientUnits="userSpaceOnUse">
            <stop stop-color="white"/>
            <stop offset="1" stop-color="#F3F3F3"/>
        </linearGradient>
        <linearGradient id="paint333_linear" x1="666" y1="32.0192" x2="666" y2="0" gradientUnits="userSpaceOnUse">
            <stop stop-color="#51516D"/>
            <stop offset="1" stop-color="#575672"/>
        </linearGradient>
        <filter id="filter0_dddd111" x="180.15" y="64.3193" width="305.7" height="387.285" filterUnits="userSpaceOnUse" color-interpolation-filters="sRGB">
            <feFlood flood-opacity="0" result="BackgroundImageFix"/>
            <feColorMatrix in="SourceAlpha" type="matrix" values="0 0 0 0 0 0 0 0 0 0 0 0 0 0 0 0 0 0 127 0"/>
            <feOffset dy="2"/>
            <feGaussianBlur stdDeviation="1.5"/>
            <feColorMatrix type="matrix" values="0 0 0 0 0.172549 0 0 0 0 0.278431 0 0 0 0 0.572549 0 0 0 0.2 0"/>
            <feBlend mode="normal" in2="BackgroundImageFix" result="effect1_dropShadow"/>
            <feBlend mode="normal" in="SourceGraphic" in2="effect1_dropShadow" result="shape"/>
        </filter>
    </defs>
</svg>
