<svg width="220" height="408" viewBox="0 0 220 408" fill="none" xmlns="http://www.w3.org/2000/svg">
    <g filter="url(#2222filter0_d)">
        <rect x="14" y="12" width="192" height="379" rx="23" fill="#E3EDFD"/>
        <rect x="10" y="8" width="200" height="387" rx="27" stroke="#555470" stroke-width="8"/>
    </g>
    <mask id="mask0rcds" mask-type="alpha" maskUnits="userSpaceOnUse" x="14" y="12" width="192" height="379">
        <rect x="18" y="16" width="184" height="371" rx="19" fill="#E3EDFD" stroke="#555470" stroke-width="8"/>
    </mask>
    <g mask="url(#mask0rcds)">
        <ellipse cx="110" cy="38" rx="197" ry="150" fill="url(#aapaint0_linear)"/>
        <path d="M186.013 -25.5309L175.482 -29.3638L171.649 -18.8329L144.47 55.8411L140.637 66.372L151.168 70.205L225.842 97.3841L236.373 101.217L240.206 90.6861L267.385 16.0121L271.218 5.48119L260.687 1.64826L186.013 -25.5309Z" stroke="#5185FF" stroke-width="22.4135"/>
        <path d="M27 69C59.0325 69 85 43.0325 85 11C85 -21.0325 59.0325 -47 27 -47C-5.03251 -47 -31 -21.0325 -31 11C-31 43.0325 -5.03251 69 27 69Z" stroke="#4F83FC" stroke-width="24"/>
    </g>
    <g filter="url(#22filter1_d)">
        <rect x="27" y="118" width="166" height="140" rx="11" fill="white"/>
    </g>
    <path d="M110 153.5C125.74 153.5 138.5 140.74 138.5 125C138.5 109.26 125.74 96.5 110 96.5C94.2599 96.5 81.5 109.26 81.5 125C81.5 140.74 94.2599 153.5 110 153.5Z" fill="#F3F8FF" stroke="white" stroke-width="5"/>
    <path d="M103.008 108C101.353 108 100 109.371 100 111.048V139.238C100 140.914 101.353 142.286 103.008 142.286H116.992C118.647 142.286 120 140.914 120 139.238V111.048C120 109.371 118.647 108 116.992 108H103.008ZM108.325 110.936H111.678C111.899 110.936 112.077 111.191 112.077 111.507C112.077 111.824 111.899 112.079 111.678 112.079H108.325C108.104 112.079 107.926 111.824 107.926 111.507C107.926 111.191 108.104 110.936 108.325 110.936ZM103.008 114.5H116.992V135.5H103.008V114.5ZM110.001 136.893C111.029 136.893 111.863 137.738 111.863 138.78C111.863 139.821 111.029 140.667 110.001 140.667C108.972 140.667 108.139 139.821 108.139 138.78C108.139 137.738 108.972 136.893 110.001 136.893Z" fill="#CEDDF6"/>
    <path d="M48 222C48 214.268 54.268 208 62 208H158C165.732 208 172 214.268 172 222C172 229.732 165.732 236 158 236H62C54.268 236 48 229.732 48 222Z" fill="#E3EDFD"/>
    <rect x="48" y="169" width="124" height="28" rx="14" fill="#E3EDFD"/>
    <path d="M65.3477 188H71.5777V186.334H69.6317V177.64H68.1057C67.4477 178.046 66.7337 178.312 65.6977 178.508V179.782H67.5737V186.334H65.3477V188Z" fill="#525E73"/>
    <path d="M76.3078 188.196C78.2258 188.196 79.9338 186.866 79.9338 184.556C79.9338 182.302 78.4778 181.266 76.7418 181.266C76.2658 181.266 75.9018 181.364 75.4958 181.56L75.6918 179.362H79.4578V177.64H73.9138L73.6338 182.666L74.5718 183.282C75.1738 182.89 75.5098 182.736 76.1258 182.736C77.1758 182.736 77.8758 183.408 77.8758 184.612C77.8758 185.83 77.1198 186.516 76.0418 186.516C75.0758 186.516 74.3478 186.04 73.7598 185.466L72.8078 186.782C73.5778 187.552 74.6698 188.196 76.3078 188.196Z" fill="#525E73"/>
    <path d="M85.0699 186.642C84.2019 186.642 83.5019 185.914 83.3059 184.024C83.8239 183.226 84.4399 182.932 84.9999 182.932C85.8959 182.932 86.4699 183.506 86.4699 184.738C86.4699 185.998 85.8399 186.642 85.0699 186.642ZM88.2059 178.62C87.5759 177.976 86.6519 177.444 85.3919 177.444C83.3059 177.444 81.3879 179.096 81.3879 182.96C81.3879 186.614 83.1379 188.196 85.1119 188.196C86.8759 188.196 88.3599 186.866 88.3599 184.738C88.3599 182.512 87.1279 181.476 85.3919 181.476C84.7199 181.476 83.8239 181.896 83.2639 182.582C83.3479 179.992 84.3279 179.096 85.5179 179.096C86.1199 179.096 86.7499 179.432 87.1139 179.852L88.2059 178.62Z" fill="#525E73"/>
    <path d="M124.971 188H131.201V186.334H129.255V177.64H127.729C127.071 178.046 126.357 178.312 125.321 178.508V179.782H127.197V186.334H124.971V188Z" fill="#525E73"/>
    <path d="M136.197 188.196C138.297 188.196 139.697 186.348 139.697 182.778C139.697 179.208 138.297 177.444 136.197 177.444C134.083 177.444 132.683 179.194 132.683 182.778C132.683 186.348 134.083 188.196 136.197 188.196ZM136.197 186.586C135.301 186.586 134.629 185.69 134.629 182.778C134.629 179.88 135.301 179.04 136.197 179.04C137.079 179.04 137.751 179.88 137.751 182.778C137.751 185.69 137.079 186.586 136.197 186.586Z" fill="#525E73"/>
    <path d="M140.913 188H147.857V186.264H145.603C145.127 186.264 144.441 186.32 143.923 186.376C145.813 184.528 147.367 182.512 147.367 180.636C147.367 178.704 146.065 177.444 144.105 177.444C142.691 177.444 141.767 178.004 140.815 179.012L141.935 180.132C142.453 179.558 143.083 179.068 143.839 179.068C144.819 179.068 145.393 179.698 145.393 180.748C145.393 182.344 143.727 184.29 140.913 186.81V188Z" fill="#525E73"/>
    <path d="M150.851 183.744L152.461 181.168C152.755 180.608 153.035 180.034 153.287 179.488H153.343C153.315 180.09 153.259 181.028 153.259 181.63V183.744H150.851ZM156.409 183.744H155.177V177.64H152.713L148.849 183.912V185.312H153.259V188H155.177V185.312H156.409V183.744Z" fill="#525E73"/>
    <path d="M94.7454 186L96.025 184.462L97.3046 186L98.2207 185.292L97.2464 183.538L98.9914 182.723L98.6424 181.585L96.7811 182.031L96.6066 180H95.4579L95.2688 182.031L93.4076 181.585L93.0586 182.723L94.789 183.538L93.8293 185.292L94.7454 186Z" fill="#97ACCE"/>
    <path d="M102.101 186L103.381 184.462L104.66 186L105.576 185.292L104.602 183.538L106.347 182.723L105.998 181.585L104.137 182.031L103.962 180H102.814L102.625 182.031L100.763 181.585L100.414 182.723L102.145 183.538L101.185 185.292L102.101 186Z" fill="#97ACCE"/>
    <path d="M109.457 186L110.736 184.462L112.016 186L112.932 185.292L111.958 183.538L113.703 182.723L113.354 181.585L111.493 182.031L111.318 180H110.169L109.98 182.031L108.119 181.585L107.77 182.723L109.5 183.538L108.541 185.292L109.457 186Z" fill="#97ACCE"/>
    <path d="M116.813 186L118.092 184.462L119.372 186L120.288 185.292L119.314 183.538L121.059 182.723L120.71 181.585L118.848 182.031L118.674 180H117.525L117.336 182.031L115.475 181.585L115.126 182.723L116.856 183.538L115.897 185.292L116.813 186Z" fill="#97ACCE"/>
    <circle opacity="0.1" cx="110" cy="196" r="27" fill="#00A77B"/>
    <path d="M100 196L106 202.5L119 190" stroke="#27C267" stroke-width="3" stroke-linecap="round"/>
    <path d="M110 153.5C125.74 153.5 138.5 140.74 138.5 125C138.5 109.26 125.74 96.5 110 96.5C94.2599 96.5 81.5 109.26 81.5 125C81.5 140.74 94.2599 153.5 110 153.5Z" fill="#F3F8FF" stroke="white" stroke-width="5"/>
    <mask id="mask1dddd2" mask-type="alpha" maskUnits="userSpaceOnUse" x="84" y="99" width="52" height="52">
        <path fill-rule="evenodd" clip-rule="evenodd" d="M110 151C124.359 151 136 139.359 136 125C136 110.641 124.359 99 110 99C95.6406 99 84 110.641 84 125C84 139.359 95.6406 151 110 151Z" fill="white"/>
    </mask>
    <g mask="url(#mask1dddd2)">
        <path opacity="0.8" fill-rule="evenodd" clip-rule="evenodd" d="M121.124 119.811C121.124 125.781 116.277 130.621 110.298 130.621C104.319 130.621 99.4727 125.781 99.4727 119.811C99.4727 113.84 104.319 109 110.298 109C116.277 109 121.124 113.84 121.124 119.811ZM109.696 133.231C119.911 133.231 128.434 141.051 129.543 151.249H89.8496C90.9593 141.051 99.482 133.231 109.696 133.231Z" fill="#CEDDF6"/>
    </g>
    <defs>
        <filter id="2222filter0_d" x="0.236538" y="0.798077" width="219.527" height="406.527" filterUnits="userSpaceOnUse" color-interpolation-filters="sRGB">
            <feFlood flood-opacity="0" result="BackgroundImageFix"/>
            <feColorMatrix in="SourceAlpha" type="matrix" values="0 0 0 0 0 0 0 0 0 0 0 0 0 0 0 0 0 0 127 0"/>
            <feOffset dy="2.56154"/>
            <feGaussianBlur stdDeviation="2.88173"/>
            <feColorMatrix type="matrix" values="0 0 0 0 0 0 0 0 0 0 0 0 0 0 0 0 0 0 0.118744 0"/>
            <feBlend mode="normal" in2="BackgroundImageFix" result="effect1_dropShadow"/>
            <feBlend mode="normal" in="SourceGraphic" in2="effect1_dropShadow" result="shape"/>
        </filter>
        <filter id="22filter1_d" x="24" y="117" width="172" height="146" filterUnits="userSpaceOnUse" color-interpolation-filters="sRGB">
            <feFlood flood-opacity="0" result="BackgroundImageFix"/>
            <feColorMatrix in="SourceAlpha" type="matrix" values="0 0 0 0 0 0 0 0 0 0 0 0 0 0 0 0 0 0 127 0"/>
            <feOffset dy="2"/>
            <feGaussianBlur stdDeviation="1.5"/>
            <feColorMatrix type="matrix" values="0 0 0 0 0.172549 0 0 0 0 0.278431 0 0 0 0 0.572549 0 0 0 0.2 0"/>
            <feBlend mode="normal" in2="BackgroundImageFix" result="effect1_dropShadow"/>
            <feBlend mode="normal" in="SourceGraphic" in2="effect1_dropShadow" result="shape"/>
        </filter>
        <linearGradient id="aapaint0_linear" x1="-25" y1="435.081" x2="-28.4788" y2="37.9779" gradientUnits="userSpaceOnUse">
            <stop stop-color="#4779FF"/>
            <stop offset="1" stop-color="#629CFF"/>
        </linearGradient>
    </defs>
</svg>
