<svg width="60" height="60" viewBox="0 0 60 60" fill="none" xmlns="http://www.w3.org/2000/svg">
<rect x="12" y="12" width="36" height="36" fill="white" fill-opacity="0.01"/>
<path fill-rule="evenodd" clip-rule="evenodd" d="M19.5 42.8333C19.5 44.8584 21.1416 46.5 23.1667 46.5H36.8333C38.8584 46.5 40.5 44.8584 40.5 42.8333V39.2812L19.5 39V42.8333Z" fill="url(#paint0_linear)"/>
<path fill-rule="evenodd" clip-rule="evenodd" d="M35.326 17.625C34.7154 15.2528 32.562 13.5 29.9993 13.5C27.4365 13.5 25.2831 15.2528 24.6725 17.625H17.1667C15.1416 17.625 13.5 19.2666 13.5 21.2917V35.9583C13.5 36.4646 13.9104 36.875 14.4167 36.875H45.5833C46.0896 36.875 46.5 36.4646 46.5 35.9583V21.2917C46.5 19.2666 44.8584 17.625 42.8333 17.625H35.326ZM23.1246 31.375C25.4028 31.375 27.2496 29.5282 27.2496 27.25C27.2496 24.9718 25.4028 23.125 23.1246 23.125C20.8465 23.125 18.9996 24.9718 18.9996 27.25C18.9996 29.5282 20.8465 31.375 23.1246 31.375ZM36.8743 31.375C39.1524 31.375 40.9993 29.5282 40.9993 27.25C40.9993 24.9718 39.1524 23.125 36.8743 23.125C34.5961 23.125 32.7493 24.9718 32.7493 27.25C32.7493 29.5282 34.5961 31.375 36.8743 31.375Z" fill="#2684FF"/>
<defs>
<linearGradient id="paint0_linear" x1="40.5" y1="39" x2="40.5" y2="46.5" gradientUnits="userSpaceOnUse">
<stop stop-color="#0153CD"/>
<stop offset="1" stop-color="#2684FF"/>
</linearGradient>
</defs>
</svg>
