<svg width="60" height="60" viewBox="0 0 60 60" fill="none" xmlns="http://www.w3.org/2000/svg">
<rect x="12" y="12" width="36" height="36" fill="white" fill-opacity="0.01"/>
<path fill-rule="evenodd" clip-rule="evenodd" d="M43.1997 29.3252L30 38.4L16.8003 29.3252L12 35.6256L30 48.0006L48 35.6256L43.1997 29.3252Z" fill="#2684FF"/>
<path fill-rule="evenodd" clip-rule="evenodd" d="M30 48L47.9992 35.6256L43.1989 29.3252L30 38.3995V48Z" fill="url(#paint0_linear)"/>
<path fill-rule="evenodd" clip-rule="evenodd" d="M22.8005 21.6006L18 27.9013L30 36.1513L42 27.9013L37.1995 21.6006L30 26.5502L22.8005 21.6006Z" fill="#2684FF"/>
<path fill-rule="evenodd" clip-rule="evenodd" d="M30 36.1511L41.9992 27.9016L37.1984 21.6006L30 26.5495V36.1511Z" fill="url(#paint1_linear)"/>
<path fill-rule="evenodd" clip-rule="evenodd" d="M36 19.875L30 24L24 19.875L30 12L36 19.875Z" fill="#2684FF"/>
<path fill-rule="evenodd" clip-rule="evenodd" d="M30 23.9994L35.9992 19.875L30 12.001V23.9994Z" fill="url(#paint2_linear)"/>
<defs>
<linearGradient id="paint0_linear" x1="34.7557" y1="51.7506" x2="49.9477" y2="42.3904" gradientUnits="userSpaceOnUse">
<stop stop-color="#0052CC"/>
<stop offset="1" stop-color="#2684FF"/>
</linearGradient>
<linearGradient id="paint1_linear" x1="33.1704" y1="39.0733" x2="44.1042" y2="33.3093" gradientUnits="userSpaceOnUse">
<stop stop-color="#0052CC"/>
<stop offset="1" stop-color="#2684FF"/>
</linearGradient>
<linearGradient id="paint2_linear" x1="31.5851" y1="26.4091" x2="37.9233" y2="24.3832" gradientUnits="userSpaceOnUse">
<stop stop-color="#0052CC"/>
<stop offset="1" stop-color="#2684FF"/>
</linearGradient>
</defs>
</svg>
