<svg width="60" height="60" viewBox="0 0 60 60" fill="none" xmlns="http://www.w3.org/2000/svg">
<path fill-rule="evenodd" clip-rule="evenodd" d="M16.623 29.1894C13.3611 25.9275 12.8236 21.1764 16.5668 17.4332C20.31 13.69 25.0611 14.2275 28.323 17.4894V17.4894C28.5436 17.7101 28.5306 18.0693 28.31 18.2899L17.4235 29.1764C17.2029 29.397 16.8436 29.4101 16.623 29.1894V29.1894Z" fill="#2684FF"/>
<path fill-rule="evenodd" clip-rule="evenodd" d="M14.5684 35.6259C13.7561 36.4382 13.7561 37.7552 14.5684 38.5675L15.3709 39.3699C16.1832 40.1822 17.5001 40.1822 18.3124 39.3699L19.6547 38.0276L24.2695 42.6423C25.4905 43.8634 26.9649 44.6765 28.5235 45.0818L28.5235 46.8521C28.5235 48.0009 29.4547 48.9321 30.6035 48.9321L31.7383 48.9321C32.887 48.9321 33.8183 48.0009 33.8183 46.8521L33.8183 44.9155C35.1667 44.4723 36.4343 43.7146 37.5065 42.6423L41.1445 39.0044C42.2166 37.9323 42.9743 36.6648 43.4175 35.3165H45.353C46.5018 35.3165 47.433 34.3853 47.433 33.2365V32.1017C47.433 30.953 46.5018 30.0217 45.353 30.0217H43.584C43.1788 28.463 42.3656 26.9885 41.1445 25.7673L36.5297 21.1526L37.8709 19.8115C38.6832 18.9992 38.6832 17.6822 37.8709 16.8699L37.0684 16.0675C36.2561 15.2552 34.9392 15.2552 34.1269 16.0675L14.5684 35.6259Z" fill="#2684FF"/>
<mask id="mask0" mask-type="alpha" maskUnits="userSpaceOnUse" x="13" y="14" width="39" height="39">
<path fill-rule="evenodd" clip-rule="evenodd" d="M14.5684 35.6259C13.7561 36.4382 13.7561 37.7552 14.5684 38.5675L15.3709 39.3699C16.1832 40.1822 17.5001 40.1822 18.3124 39.3699L19.6547 38.0276L24.2695 42.6423C25.4905 43.8634 26.9649 44.6765 28.5235 45.0818L28.5235 46.8521C28.5235 48.0009 29.4547 48.9321 30.6035 48.9321L31.7383 48.9321C32.887 48.9321 33.8183 48.0009 33.8183 46.8521L33.8183 44.9155C35.1667 44.4723 36.4343 43.7146 37.5065 42.6423L41.1445 39.0044C42.2166 37.9323 42.9743 36.6648 43.4175 35.3165H45.353C46.5018 35.3165 47.433 34.3853 47.433 33.2365V32.1017C47.433 30.953 46.5018 30.0217 45.353 30.0217H43.584C43.1788 28.463 42.3656 26.9885 41.1445 25.7673L36.5297 21.1526L37.8709 19.8115C38.6832 18.9992 38.6832 17.6822 37.8709 16.8699L37.0684 16.0675C36.2561 15.2552 34.9392 15.2552 34.1269 16.0675L14.5684 35.6259Z" fill="white"/>
</mask>
<g mask="url(#mask0)">
<rect x="-0.943359" y="23.0566" width="15.9099" height="51.6245" transform="rotate(-45 -0.943359 23.0566)" fill="url(#paint0_linear)"/>
</g>
<defs>
<linearGradient id="paint0_linear" x1="14.9665" y1="32.2517" x2="4.7242" y2="32.2517" gradientUnits="userSpaceOnUse">
<stop stop-color="#0053CD"/>
<stop offset="1" stop-color="#2684FF"/>
</linearGradient>
</defs>
</svg>
