<svg width="60" height="60" viewBox="0 0 60 60" fill="none" xmlns="http://www.w3.org/2000/svg">
<path fill-rule="evenodd" clip-rule="evenodd" d="M16.6988 30.2223C12.8546 26.3781 12.2212 20.7788 16.6326 16.3674C21.044 11.956 26.6432 12.5895 30.4874 16.4337C30.7474 16.6937 30.7321 17.1171 30.472 17.3771L17.6422 30.2069C17.3822 30.4669 16.9588 30.4823 16.6988 30.2223Z" fill="#2684FF"/>
<path fill-rule="evenodd" clip-rule="evenodd" d="M14.0138 38.0712C13.2015 38.8835 13.2015 40.2005 14.0137 41.0128L15.4845 42.4836C16.2968 43.2958 17.6138 43.2958 18.4261 42.4836L20.2707 40.6389L26.8897 47.2579C28 48.3681 29.3197 49.1411 30.7217 49.577V51.4102C30.7217 52.559 31.6529 53.4902 32.8017 53.4902H34.8817C36.0304 53.4902 36.9617 52.559 36.9617 51.4102L36.9617 49.3416C38.1142 48.8848 39.1944 48.1903 40.1268 47.2579L46.7771 40.6076C47.7091 39.6756 48.4034 38.596 48.8601 37.4441H50.9278C52.0766 37.4441 53.0078 36.5129 53.0078 35.3641L53.0078 33.2841C53.0078 32.1353 52.0766 31.2041 50.9278 31.2041H49.0967C48.661 29.8015 47.8878 28.4812 46.7771 27.3705L40.1581 20.7515L42.001 18.9086C42.8133 18.0963 42.8133 16.7793 42.001 15.9671L40.5303 14.4963C39.718 13.684 38.401 13.684 37.5887 14.4963L14.0138 38.0712Z" fill="#2684FF"/>
<mask id="mask0" mask-type="alpha" maskUnits="userSpaceOnUse" x="12" y="13" width="46" height="46">
<path fill-rule="evenodd" clip-rule="evenodd" d="M14.0138 38.0712C13.2015 38.8835 13.2015 40.2005 14.0137 41.0128L15.4845 42.4836C16.2968 43.2958 17.6138 43.2958 18.4261 42.4836L20.2707 40.6389L26.8897 47.2579C28 48.3681 29.3197 49.1411 30.7217 49.577V51.4102C30.7217 52.559 31.6529 53.4902 32.8017 53.4902H34.8817C36.0304 53.4902 36.9617 52.559 36.9617 51.4102L36.9617 49.3416C38.1142 48.8848 39.1944 48.1903 40.1268 47.2579L46.7771 40.6076C47.7091 39.6756 48.4034 38.596 48.8601 37.4441H50.9278C52.0766 37.4441 53.0078 36.5129 53.0078 35.3641L53.0078 33.2841C53.0078 32.1353 52.0766 31.2041 50.9278 31.2041H49.0967C48.661 29.8015 47.8878 28.4812 46.7771 27.3705L40.1581 20.7515L42.001 18.9086C42.8133 18.0963 42.8133 16.7793 42.001 15.9671L40.5303 14.4963C39.718 13.684 38.401 13.684 37.5887 14.4963L14.0138 38.0712Z" fill="white"/>
</mask>
<g mask="url(#mask0)">
<rect x="-4.00391" y="22.9951" width="18.75" height="60.84" transform="rotate(-45 -4.00391 22.9951)" fill="url(#paint0_linear)"/>
</g>
<defs>
<linearGradient id="paint0_linear" x1="14.7461" y1="33.8316" x2="2.67537" y2="33.8316" gradientUnits="userSpaceOnUse">
<stop stop-color="#0053CD"/>
<stop offset="1" stop-color="#2684FF"/>
</linearGradient>
</defs>
</svg>
